<svg width="37" height="37" viewBox="0 0 37 37" fill="none" xmlns="http://www.w3.org/2000/svg">
<path d="M26.208 29.2917H29.2913V16.9583H20.0413V29.2917H23.1247V20.0417H26.208V29.2917ZM4.62467 29.2917V6.16667C4.62467 5.75779 4.7871 5.36566 5.07622 5.07654C5.36534 4.78743 5.75747 4.625 6.16634 4.625H27.7497C28.1586 4.625 28.5507 4.78743 28.8398 5.07654C29.1289 5.36566 29.2913 5.75779 29.2913 6.16667V13.875H32.3747V29.2917H33.9163V32.375H3.08301V29.2917H4.62467ZM10.7913 16.9583V20.0417H13.8747V16.9583H10.7913ZM10.7913 23.125V26.2083H13.8747V23.125H10.7913ZM10.7913 10.7917V13.875H13.8747V10.7917H10.7913Z" fill="#294745"/>
</svg>
