<svg width="37" height="37" viewBox="0 0 37 37" fill="none" xmlns="http://www.w3.org/2000/svg">
<path d="M10.7913 16.958C9.8803 16.958 8.97817 16.7786 8.13648 16.4299C7.29478 16.0813 6.52999 15.5703 5.88579 14.9261C5.24158 14.2819 4.73057 13.5171 4.38193 12.6754C4.03328 11.8337 3.85384 10.9316 3.85384 10.0205C3.85384 9.10946 4.03328 8.20734 4.38193 7.36564C4.73057 6.52395 5.24158 5.75916 5.88579 5.11495C6.52999 4.47075 7.29478 3.95974 8.13648 3.61109C8.97817 3.26245 9.8803 3.08301 10.7913 3.08301C12.6313 3.08301 14.3959 3.81392 15.6969 5.11495C16.9979 6.41599 17.7288 8.18057 17.7288 10.0205C17.7288 11.8604 16.9979 13.625 15.6969 14.9261C14.3959 16.2271 12.6313 16.958 10.7913 16.958ZM26.9788 23.1247C25.3433 23.1247 23.7748 22.475 22.6184 21.3185C21.4619 20.162 20.8122 18.5935 20.8122 16.958C20.8122 15.3225 21.4619 13.754 22.6184 12.5975C23.7748 11.441 25.3433 10.7913 26.9788 10.7913C28.6143 10.7913 30.1829 11.441 31.3393 12.5975C32.4958 13.754 33.1455 15.3225 33.1455 16.958C33.1455 18.5935 32.4958 20.162 31.3393 21.3185C30.1829 22.475 28.6143 23.1247 26.9788 23.1247ZM26.9788 24.6663C28.8188 24.6663 30.5834 25.3973 31.8844 26.6983C33.1854 27.9993 33.9163 29.7639 33.9163 31.6038V32.3747H20.0413V31.6038C20.0413 29.7639 20.7723 27.9993 22.0733 26.6983C23.3743 25.3973 25.1389 24.6663 26.9788 24.6663ZM10.7913 18.4997C11.8036 18.4997 12.806 18.6991 13.7412 19.0864C14.6764 19.4738 15.5262 20.0416 16.242 20.7574C16.9577 21.4732 17.5255 22.3229 17.9129 23.2582C18.3003 24.1934 18.4997 25.1957 18.4997 26.208V32.3747H3.08301V26.208C3.08301 24.1636 3.89513 22.203 5.34073 20.7574C6.78632 19.3118 8.74696 18.4997 10.7913 18.4997Z" fill="#294745"/>
</svg>
